<svg xmlns="http://www.w3.org/2000/svg" height="9" width="9"><rect x="1" y="4" width="1" height="1" fill="#94B0BF" /><rect x="7" y="4" width="1"  height="1" fill="#94B0BF" /><rect x="1" y="5" width="1" height="1" fill="#94B0BF" /><rect x="7" y="5" width="1"  height="1" fill="#94B0BF" /><rect x="1" y="7" width="1" height="1" fill="#94B0BF" /><rect x="7" y="7" width="1"  height="1" fill="#94B0BF" /><rect x="2" y="2" width="1" height="1" fill="#94B0BF" /><rect x="6" y="2" width="1"  height="1" fill="#94B0BF" /><rect x="2" y="3" width="1" height="1" fill="#94B0BF" /><rect x="6" y="3" width="1"  height="1" fill="#94B0BF" /><rect x="2" y="4" width="1" height="1" fill="#94B0BF" /><rect x="6" y="4" width="1"  height="1" fill="#94B0BF" /><rect x="2" y="5" width="1" height="1" fill="#94B0BF" /><rect x="6" y="5" width="1"  height="1" fill="#94B0BF" /><rect x="2" y="6" width="1" height="1" fill="#94B0BF" /><rect x="6" y="6" width="1"  height="1" fill="#94B0BF" /><rect x="2" y="7" width="1" height="1" fill="#94B0BF" /><rect x="6" y="7" width="1"  height="1" fill="#94B0BF" /><rect x="3" y="2" width="1" height="1" fill="#94B0BF" /><rect x="5" y="2" width="1"  height="1" fill="#94B0BF" /><rect x="3" y="3" width="1" height="1" fill="#94B0BF" /><rect x="5" y="3" width="1"  height="1" fill="#94B0BF" /><rect x="3" y="4" width="1" height="1" fill="#94B0BF" /><rect x="5" y="4" width="1"  height="1" fill="#94B0BF" /><rect x="3" y="7" width="1" height="1" fill="#94B0BF" /><rect x="5" y="7" width="1"  height="1" fill="#94B0BF" /><rect x="4" y="3" width="1" height="1" fill="#94B0BF" /><rect x="4" y="5" width="1" height="1" fill="#94B0BF" /></svg>