<svg width="40" height="40" viewBox="0 0 40 40" fill="none" xmlns="http://www.w3.org/2000/svg">
<g clip-path="url(#clip0_2_2)">
<mask id="mask0_2_2" style="mask-type:luminance" maskUnits="userSpaceOnUse" x="0" y="0" width="40" height="40">
<path d="M40 0H0V40H40V0Z" fill="white"/>
</mask>
<g mask="url(#mask0_2_2)">
<path d="M20.635 39L28.33 31.3321L20.635 23.6643L17.8 26.5143L20.7025 29.4321C19.4425 29.4773 18.2162 29.2738 17.0237 28.8214C15.8313 28.3691 14.7625 27.6679 13.8175 26.7179C12.9175 25.8131 12.2312 24.7727 11.7587 23.5964C11.2862 22.4202 11.05 21.2441 11.05 20.0679C11.05 19.2988 11.1513 18.5298 11.3538 17.7607C11.5563 16.9916 11.8375 16.2452 12.1975 15.5214L9.2275 12.5357C8.46245 13.6666 7.90004 14.8655 7.54 16.1321C7.17995 17.3988 7 18.688 7 20C7 21.7191 7.3375 23.4155 8.0125 25.0893C8.6875 26.763 9.67745 28.2559 10.9825 29.5679C12.2875 30.8798 13.75 31.8637 15.37 32.5196C16.99 33.1755 18.655 33.5262 20.365 33.5714L17.8 36.15L20.635 39ZM31.7725 27.4643C32.5375 26.3334 33.1 25.1345 33.46 23.8679C33.82 22.6012 34 21.3119 34 20C34 18.2809 33.6737 16.5732 33.0212 14.8768C32.3688 13.1804 31.39 11.6762 30.085 10.3643C28.78 9.05233 27.3063 8.07981 25.6638 7.44643C24.0212 6.81305 22.345 6.49643 20.635 6.49643L23.2 3.85L20.365 1L12.67 8.66786L20.365 16.3357L23.2 13.4857L20.23 10.5C21.445 10.5 22.6825 10.7375 23.9425 11.2125C25.2025 11.6875 26.2825 12.3773 27.1825 13.2821C28.0825 14.187 28.7688 15.2273 29.2413 16.4036C29.7138 17.5798 29.95 18.7559 29.95 19.9321C29.95 20.7012 29.8487 21.4702 29.6462 22.2393C29.4437 23.0084 29.1625 23.7548 28.8025 24.4786L31.7725 27.4643Z" fill="#222222"/>
</g>
</g>
<defs>
<clipPath id="clip0_2_2">
<rect width="40" height="40" fill="white"/>
</clipPath>
</defs>
</svg>
