<svg width="40" height="40" viewBox="0 0 40 40" fill="none" xmlns="http://www.w3.org/2000/svg">
<rect width="40" height="40"/>
<g clip-path="url(#clip0_0_1)">
<path d="M20.1 34L25.8 28.35L20.1 22.7L18 24.8L20.15 26.95C19.2167 26.9833 18.3083 26.8333 17.425 26.5C16.5417 26.1667 15.75 25.65 15.05 24.95C14.3833 24.2833 13.875 23.5167 13.525 22.65C13.175 21.7833 13 20.9167 13 20.05C13 19.4833 13.075 18.9167 13.225 18.35C13.375 17.7833 13.5833 17.2333 13.85 16.7L11.65 14.5C11.0833 15.3333 10.6667 16.2167 10.4 17.15C10.1333 18.0833 10 19.0333 10 20C10 21.2667 10.25 22.5167 10.75 23.75C11.25 24.9833 11.9833 26.0833 12.95 27.05C13.9167 28.0167 15 28.7417 16.2 29.225C17.4 29.7083 18.6333 29.9667 19.9 30L18 31.9L20.1 34ZM28.35 25.5C28.9167 24.6667 29.3333 23.7833 29.6 22.85C29.8667 21.9167 30 20.9667 30 20C30 18.7333 29.7583 17.475 29.275 16.225C28.7917 14.975 28.0667 13.8667 27.1 12.9C26.1333 11.9333 25.0417 11.2167 23.825 10.75C22.6083 10.2833 21.3667 10.05 20.1 10.05L22 8.1L19.9 6L14.2 11.65L19.9 17.3L22 15.2L19.8 13C20.7 13 21.6167 13.175 22.55 13.525C23.4833 13.875 24.2833 14.3833 24.95 15.05C25.6167 15.7167 26.125 16.4833 26.475 17.35C26.825 18.2167 27 19.0833 27 19.95C27 20.5167 26.925 21.0833 26.775 21.65C26.625 22.2167 26.4167 22.7667 26.15 23.3L28.35 25.5ZM20 40C17.2667 40 14.6833 39.475 12.25 38.425C9.81667 37.375 7.69167 35.9417 5.875 34.125C4.05833 32.3083 2.625 30.1833 1.575 27.75C0.525 25.3167 0 22.7333 0 20C0 17.2333 0.525 14.6333 1.575 12.2C2.625 9.76667 4.05833 7.65 5.875 5.85C7.69167 4.05 9.81667 2.625 12.25 1.575C14.6833 0.525 17.2667 0 20 0C22.7667 0 25.3667 0.525 27.8 1.575C30.2333 2.625 32.35 4.05 34.15 5.85C35.95 7.65 37.375 9.76667 38.425 12.2C39.475 14.6333 40 17.2333 40 20C40 22.7333 39.475 25.3167 38.425 27.75C37.375 30.1833 35.95 32.3083 34.15 34.125C32.35 35.9417 30.2333 37.375 27.8 38.425C25.3667 39.475 22.7667 40 20 40ZM20 37C24.7333 37 28.75 35.3417 32.05 32.025C35.35 28.7083 37 24.7 37 20C37 15.2667 35.35 11.25 32.05 7.95C28.75 4.65 24.7333 3 20 3C15.3 3 11.2917 4.65 7.975 7.95C4.65833 11.25 3 15.2667 3 20C3 24.7 4.65833 28.7083 7.975 32.025C11.2917 35.3417 15.3 37 20 37Z" fill="#DDDDDD"/>
</g>
<defs>
<clipPath id="clip0_0_1">
<rect width="40" height="40" fill="white"/>
</clipPath>
</defs>
</svg>